<svg xmlns="http://www.w3.org/2000/svg" viewBox="0 0 512 512">
  <rect width="512" height="512" rx="128" fill="#4F46E5" />
  <path d="M256 128C220.65 128 192 156.65 192 192C192 227.35 220.65 256 256 256C291.35 256 320 227.35 320 192C320 156.65 291.35 128 256 128Z" fill="#FFFFFF" />
  <path d="M144 208C126.33 208 112 222.33 112 240C112 257.67 126.33 272 144 272C161.67 272 176 257.67 176 240C176 222.33 161.67 208 144 208Z" fill="#FFFFFF" />
  <path d="M368 208C350.33 208 336 222.33 336 240C336 257.67 350.33 272 368 272C385.67 272 400 257.67 400 240C400 222.33 385.67 208 368 208Z" fill="#FFFFFF" />
  <path d="M128 320C128 364.18 163.82 400 208 400H304C348.18 400 384 364.18 384 320C384 275.82 348.18 240 304 240C293.42 240 283.33 242.06 274.08 245.7L256 252.93L237.92 245.7C228.67 242.06 218.58 240 208 240C163.82 240 128 275.82 128 320V320Z" fill="#FFFFFF" />
  <path d="M256 352L256 288" stroke="#4F46E5" stroke-width="24" stroke-linecap="round" />
  <path d="M224 320L288 320" stroke="#4F46E5" stroke-width="24" stroke-linecap="round" />
</svg>
